# Blender v2.76 (sub 0) OBJ File: 'soundemiter.blend'
# www.blender.org
mtllib amplifier.mtl
o amp_Plane
v -0.100000 0.210000 0.100000
v 0.100000 0.210000 0.100000
v -0.100000 0.210000 -0.100000
v 0.100000 0.210000 -0.100000
v -0.100000 0.260000 0.100000
v 0.100000 0.260000 0.100000
v -0.100000 0.260000 -0.100000
v 0.100000 0.260000 -0.100000
v -0.202828 0.450000 0.202828
v 0.202828 0.450000 0.202828
v -0.202828 0.450000 -0.202828
v 0.202828 0.450000 -0.202828
v -0.170626 0.450000 0.170626
v 0.170626 0.450000 0.170626
v -0.170626 0.450000 -0.170626
v 0.170626 0.450000 -0.170626
v -0.037532 0.300000 0.037532
v 0.037532 0.300000 0.037532
v -0.037532 0.300000 -0.037532
v 0.037532 0.300000 -0.037532
v -0.013199 0.450000 0.013199
v 0.013199 0.450000 0.013199
v -0.013199 0.450000 -0.013199
v 0.013199 0.450000 -0.013199
vt 0.495709 0.802639
vt 0.495653 0.436101
vt 0.587288 0.436087
vt 0.587344 0.802625
vt 0.587357 0.802597
vt 0.983194 0.247575
vt 0.983307 0.991016
vt 0.015412 0.011596
vt 0.771585 0.011596
vt 0.711558 0.071623
vt 0.075440 0.071623
vt 0.015412 0.011536
vt 0.463427 0.445410
vt 0.323504 0.445399
vt 0.463461 0.445435
vt 0.031374 0.382304
vt 0.182155 0.382304
vt 0.133279 0.687552
vt 0.080251 0.687552
vt 0.133287 0.687549
vt 0.080251 0.740580
vt 0.133279 0.740580
vn 0.000000 0.000000 -1.000000
vn 0.000000 0.000000 1.000000
vn 1.000000 0.000000 0.000000
vn -1.000000 0.000000 0.000000
vn 0.000000 -0.476000 -0.879500
vn 0.000000 -0.476000 0.879500
vn 0.879500 -0.476000 0.000000
vn -0.879500 -0.476000 0.000000
vn 0.000000 1.000000 0.000000
vn 0.748000 0.663700 0.000000
vn 0.000000 0.663700 0.748000
vn 0.000000 0.663700 -0.748000
vn -0.748000 0.663700 0.000000
vn 0.000000 0.160100 -0.987100
vn 0.000000 0.160100 0.987100
vn 0.987100 0.160100 0.000000
vn -0.987100 0.160100 0.000000
usemtl None
s off
f 4/1/1 3/2/1 7/3/1 8/4/1
f 1/1/2 2/2/2 6/3/2 5/5/2
f 2/1/3 4/2/3 8/3/3 6/5/3
f 3/1/4 1/2/4 5/3/4 7/4/4
f 8/4/5 7/3/5 11/6/5 12/7/5
f 5/5/6 6/3/6 10/6/6 9/7/6
f 6/5/7 8/3/7 12/6/7 10/7/7
f 7/4/8 5/3/8 9/6/8 11/7/8
f 10/8/9 12/9/9 16/10/9 14/11/9
f 11/12/9 9/9/9 13/10/9 15/11/9
f 12/12/9 11/9/9 15/10/9 16/11/9
f 9/8/9 10/9/9 14/10/9 13/11/9
f 15/11/10 13/10/10 17/13/10 19/14/10
f 16/11/11 15/10/11 19/13/11 20/14/11
f 13/11/12 14/10/12 18/15/12 17/14/12
f 14/11/13 16/10/13 20/15/13 18/14/13
f 20/16/14 19/17/14 23/18/14 24/19/14
f 17/16/15 18/17/15 22/18/15 21/19/15
f 18/16/16 20/17/16 24/20/16 22/19/16
f 19/16/17 17/17/17 21/18/17 23/19/17
f 23/21/9 21/19/9 22/18/9 24/22/9
