# Blender v2.76 (sub 0) OBJ File: 'soundemiter.blend'
# www.blender.org
mtllib glasssound.mtl
o vitre_Cube.003
v -0.300000 0.460000 0.300000
v -0.300000 0.490000 0.300000
v -0.300000 0.460000 -0.300000
v -0.300000 0.490000 -0.300000
v 0.300000 0.460000 0.300000
v 0.300000 0.490000 0.300000
v 0.300000 0.460000 -0.300000
v 0.300000 0.490000 -0.300000
vt 0.229522 0.496094
vt 0.229522 0.046529
vt 0.252000 0.046529
vt 0.252001 0.496094
vt 0.252000 0.024050
vt 0.701566 0.024050
vt 0.701566 0.046528
vt 0.724044 0.046528
vt 0.724044 0.496093
vt 0.701566 0.496094
vt 0.701566 0.518572
vt 0.252001 0.518572
vt 0.701566 0.968138
vt 0.252001 0.968138
vn -1.000000 0.000000 0.000000
vn 0.000000 0.000000 -1.000000
vn 1.000000 0.000000 0.000000
vn 0.000000 0.000000 1.000000
vn 0.000000 -1.000000 0.000000
vn 0.000000 1.000000 0.000000
usemtl None
s off
f 2/1/1 4/2/1 3/3/1 1/4/1
f 4/5/2 8/6/2 7/7/2 3/3/2
f 8/8/3 6/9/3 5/10/3 7/7/3
f 6/11/4 2/12/4 1/4/4 5/10/4
f 1/4/5 3/3/5 7/7/5 5/10/5
f 6/11/6 8/13/6 4/14/6 2/12/6
