# Blender v2.76 (sub 0) OBJ File: 'injector.blend'
# www.blender.org
mtllib injectorglass.mtl
o glass_Plane
v -0.500000 -0.400000 0.400000
v -0.500000 0.400000 0.400000
v -0.500000 -0.400000 -0.400000
v -0.500000 0.400000 -0.400000
v -0.440000 -0.400000 0.400000
v -0.440000 0.400000 0.400000
v -0.440000 -0.400000 -0.400000
v -0.440000 0.400000 -0.400000
vt 0.000000 0.000000
vt 0.465116 0.000000
vt 0.465116 0.930232
vt 0.000000 0.930232
vt 0.930232 0.000000
vt 0.930232 0.930232
vt 0.965115 0.000002
vt 0.965115 0.930231
vn 1.000000 0.000000 0.000000
vn -1.000000 0.000000 0.000000
vn 0.000000 0.000000 1.000000
vn 0.000000 -1.000000 0.000000
vn 0.000000 0.000000 -1.000000
vn 0.000000 1.000000 0.000000
usemtl None
s off
f 1/1/1 3/2/1 4/3/1 2/4/1
f 5/3/2 6/2/2 8/5/2 7/6/2
f 4/6/3 3/5/3 7/7/3 8/8/3
f 2/6/4 4/5/4 8/7/4 6/8/4
f 1/7/5 2/8/5 6/6/5 5/5/5
f 3/7/6 1/8/6 5/6/6 7/5/6
