# Blender v2.73 (sub 0) OBJ File: 'liquefier.blend'
# www.blender.org
mtllib liquefier.mtl
o Cube_Cube.001
v -0.500000 -0.500000 -0.500000
v 0.500000 -0.500000 -0.500000
v 0.500000 -0.500000 0.500000
v -0.500000 0.500000 0.500000
v 0.500000 0.500000 -0.500000
v 0.500000 0.500000 0.500000
v -0.200000 0.500000 0.200000
v -0.200000 0.500000 -0.200000
v 0.200000 0.500000 -0.200000
v 0.200000 0.500000 0.200000
v -0.200000 0.400000 0.200000
v -0.200000 0.400000 -0.200000
v 0.200000 0.400000 -0.200000
v 0.200000 0.400000 0.200000
v 0.500000 0.200000 -0.200000
v 0.500000 -0.200000 -0.200000
v 0.500000 -0.200000 0.200000
v 0.500000 0.200000 0.200000
v 0.100000 0.200000 -0.200000
v 0.100000 -0.200000 -0.200000
v 0.100000 -0.200000 0.200000
v 0.100000 0.200000 0.200000
v -0.500000 -0.500000 0.500000
v -0.500000 0.500000 -0.500000
v -0.500000 0.200000 0.200000
v -0.500000 -0.200000 0.200000
v -0.500000 -0.200000 -0.200000
v -0.500000 0.200000 -0.200000
v -0.100000 0.200000 0.200000
v -0.100000 -0.200000 0.200000
v -0.100000 -0.200000 -0.200000
v -0.100000 0.200000 -0.200000
vt 0.743268 0.166230
vt 0.647905 0.166230
vt 0.647905 0.142390
vt 0.743268 0.142390
vt 0.624065 0.142390
vt 0.624065 0.047027
vt 0.647905 0.047027
vt 0.647905 0.023186
vt 0.743268 0.023186
vt 0.743268 0.047027
vt 0.767109 0.142390
vt 0.767109 0.047027
vt 0.023186 0.738407
vt 0.094708 0.809929
vt 0.094708 0.905292
vt 0.023186 0.976814
vt 0.261593 0.738407
vt 0.190071 0.809929
vt 0.375397 0.292913
vt 0.307966 0.225481
vt 0.375397 0.158050
vt 0.442829 0.225481
vt 0.307966 0.090618
vt 0.375397 0.023186
vt 0.442829 0.090618
vt 0.510261 0.023186
vt 0.577692 0.090618
vt 0.510261 0.158050
vt 0.510261 0.292913
vt 0.577692 0.225481
vt 0.190071 0.666885
vt 0.190071 0.571522
vt 0.261593 0.500000
vt 0.023186 0.500000
vt 0.094708 0.571522
vt 0.094708 0.666885
vt 0.307966 0.406717
vt 0.375397 0.339285
vt 0.442829 0.406717
vt 0.375397 0.474149
vt 0.510261 0.339285
vt 0.577692 0.406717
vt 0.510261 0.474149
vt 0.510261 0.609012
vt 0.442829 0.541580
vt 0.577692 0.541580
vt 0.023186 0.261593
vt 0.261593 0.261593
vt 0.261593 0.976814
vt 0.190071 0.905292
vt 0.094708 0.094708
vt 0.094708 0.190071
vt 0.023186 0.023186
vt 0.190071 0.190071
vt 0.190071 0.094708
vt 0.261593 0.023186
vt 0.375397 0.609012
vt 0.307966 0.541580
vn -1.000000 0.000000 0.000000
vn 0.000000 0.000000 1.000000
vn 1.000000 0.000000 0.000000
vn 0.000000 0.000000 -1.000000
vn 0.000000 1.000000 0.000000
vn 0.000000 -1.000000 0.000000
usemtl None
s off
f 10/1/1 9/2/1 13/3/1 14/4/1
f 9/5/2 8/6/2 12/7/2 13/3/2
f 8/8/3 7/9/3 11/10/3 12/7/3
f 10/11/4 14/4/4 11/10/4 7/12/4
f 6/13/5 10/14/5 7/15/5 4/16/5
f 6/13/5 5/17/5 9/18/5 10/14/5
f 18/19/4 17/20/4 21/21/4 22/22/4
f 17/23/5 16/24/5 20/25/5 21/21/5
f 16/26/2 15/27/2 19/28/2 20/25/2
f 18/29/6 22/22/6 19/28/6 15/30/6
f 22/22/3 21/21/3 20/25/3 19/28/3
f 15/31/3 16/32/3 2/33/3 5/17/3
f 3/34/3 2/33/3 16/32/3 17/35/3
f 17/35/3 18/36/3 6/13/3 3/34/3
f 6/13/3 18/36/3 15/31/3 5/17/3
f 27/37/5 26/38/5 30/39/5 31/40/5
f 26/41/4 25/42/4 29/43/4 30/39/4
f 28/44/6 32/45/6 29/43/6 25/46/6
f 32/45/1 31/40/1 30/39/1 29/43/1
f 23/47/6 1/48/6 2/33/6 3/34/6
f 24/49/5 4/16/5 7/15/5 8/50/5
f 5/17/5 24/49/5 8/50/5 9/18/5
f 25/51/1 26/52/1 23/47/1 4/53/1
f 1/48/1 23/47/1 26/52/1 27/54/1
f 27/54/1 28/55/1 24/56/1 1/48/1
f 24/56/1 28/55/1 25/51/1 4/53/1
f 28/57/2 27/58/2 31/40/2 32/45/2
usemtl None_NONE
f 14/4/5 13/3/5 12/7/5 11/10/5
