# Blender v2.76 (sub 0) OBJ File: 'mightyfoundry.blend'
# www.blender.org
mtllib mightyfoundrybase.mtl
o base_Cube.002
v -0.500000 -0.500000 0.500000
v -0.500000 -0.500000 -0.500000
v 0.500000 -0.500000 -0.500000
v 0.500000 -0.500000 0.500000
v -0.500000 0.500000 0.500000
v -0.500000 0.500000 -0.500000
v 0.500000 0.500000 -0.500000
v 0.500000 0.500000 0.500000
v 0.500000 0.350000 0.350000
v 0.500000 -0.350000 0.350000
v 0.500000 -0.350000 -0.350000
v 0.500000 0.350000 -0.350000
v 0.450000 0.472500 0.472500
v 0.450000 -0.452500 0.472500
v 0.450000 -0.452500 -0.472500
v 0.450000 0.472500 -0.472500
v -0.350000 0.472500 0.472500
v -0.350000 -0.452500 0.472500
v -0.350000 -0.452500 -0.472500
v -0.350000 0.472500 -0.472500
v 0.450000 0.350000 0.350000
v 0.450000 -0.350000 0.350000
v 0.450000 -0.350000 -0.350000
v 0.450000 0.350000 -0.350000
vt 0.500337 0.500337
vt -0.000337 0.500337
vt -0.000337 -0.000337
vt 0.500337 -0.000337
vt 0.500337 1.001012
vt 0.425236 0.925910
vt 0.425236 0.575438
vt 0.074764 0.575438
vt 0.074764 0.925910
vt -0.000337 1.001012
vt 0.900877 0.009677
vt 0.900877 0.472801
vt 0.500337 0.472800
vt 0.500337 0.009676
vt 0.900877 -0.000337
vt 0.963461 -0.000337
vt 0.963461 0.472800
vt 0.525376 0.500337
vt 0.525376 0.850809
vt 0.500342 0.850809
vt 0.655545 0.500337
vt 0.716878 0.561670
vt 0.716877 0.912142
vt 0.655545 0.973475
vt 0.655545 0.510351
vt 0.716878 0.571683
vt 0.716877 0.922156
vt 0.655545 0.983488
vt 0.706864 0.571683
vt 0.706864 0.922156
vn -1.000000 0.000000 0.000000
vn 0.000000 0.000000 -1.000000
vn 0.000000 0.000000 1.000000
vn 0.000000 -1.000000 0.000000
vn 0.000000 1.000000 0.000000
vn 1.000000 0.000000 0.000000
usemtl None
s off
f 5/1/1 6/2/1 2/3/1 1/4/1
f 6/1/2 7/2/2 3/3/2 2/4/2
f 8/1/3 5/2/3 1/3/3 4/4/3
f 1/1/4 2/2/4 3/3/4 4/4/4
f 8/1/5 7/2/5 6/3/5 5/4/5
f 7/5/6 12/6/6 11/7/6 3/1/6
f 3/1/6 11/7/6 10/8/6 4/2/6
f 4/2/6 10/8/6 9/9/6 8/10/6
f 7/5/6 8/10/6 9/9/6 12/6/6
f 15/11/3 16/12/3 20/13/3 19/14/3
f 14/15/5 15/12/5 19/13/5 18/4/5
f 13/11/2 14/12/2 18/13/2 17/14/2
f 16/15/4 13/12/4 17/13/4 20/4/4
f 20/13/6 17/4/6 18/16/6 19/17/6
f 11/18/3 12/19/3 24/20/3 23/1/3
f 10/18/5 11/19/5 23/20/5 22/1/5
f 9/18/2 10/19/2 22/20/2 21/1/2
f 12/18/4 9/19/4 21/20/4 24/1/4
f 16/21/1 24/22/1 21/23/1 13/24/1
f 14/24/1 13/25/1 21/26/1 22/27/1
f 15/28/1 14/25/1 22/29/1 23/30/1
f 16/24/1 15/25/1 23/22/1 24/23/1
