# Blender v2.76 (sub 0) OBJ File: 'mrfusion.blend'
# www.blender.org
mtllib mrfusion-gouj.mtl
o goujon_Cylinder.001
v -0.380000 0.140000 -0.150000
v -0.380000 0.140000 0.150000
v -0.344645 0.125355 -0.150000
v -0.344645 0.125355 0.150000
v -0.330000 0.090000 -0.150000
v -0.330000 0.090000 0.150000
v -0.344645 0.054645 -0.150000
v -0.344645 0.054645 0.150000
v -0.380000 0.040000 -0.150000
v -0.380000 0.040000 0.150000
v -0.415355 0.054645 -0.150000
v -0.415355 0.054645 0.150000
v -0.430000 0.090000 -0.150000
v -0.430000 0.090000 0.150000
v -0.415355 0.125355 -0.150000
v -0.415355 0.125355 0.150000
vt 0.246523 0.027809
vt 0.246523 0.968880
vt 0.126479 0.968880
vt 0.126479 0.027809
vt 0.247710 0.027810
vt 0.247707 0.968880
vt 0.127663 0.968879
vt 0.127666 0.027809
vt 0.246126 0.027809
vt 0.246127 0.968880
vt 0.126083 0.968880
vt 0.126083 0.027809
vt 0.247315 0.027810
vt 0.247313 0.968880
vt 0.127269 0.968879
vt 0.127272 0.027809
vt 0.246920 0.027810
vt 0.246918 0.968880
vt 0.126874 0.968879
vt 0.126877 0.027809
vt 0.244936 0.027809
vt 0.244936 0.968879
vt 0.124892 0.968879
vt 0.124893 0.027809
vt 0.847570 0.379916
vt 0.847570 0.598178
vt 0.474975 0.225582
vt 0.693236 0.225582
vt 0.245333 0.027809
vt 0.245333 0.968879
vt 0.125289 0.968879
vt 0.125289 0.027809
vt 0.245729 0.027809
vt 0.245730 0.968880
vt 0.125686 0.968879
vt 0.125686 0.027809
vt 0.693236 0.752512
vt 0.320640 0.379916
vt 0.320640 0.598178
vt 0.474974 0.752512
vt 0.690362 0.225582
vt 0.844696 0.379916
vt 0.844696 0.598177
vt 0.690362 0.752512
vt 0.472101 0.752512
vt 0.472101 0.225582
vt 0.317766 0.598177
vt 0.317766 0.379916
vn 0.382700 0.923900 0.000000
vn 0.923900 0.382700 0.000000
vn 0.923900 -0.382700 -0.000000
vn 0.382700 -0.923900 -0.000000
vn -0.382700 -0.923900 -0.000000
vn -0.923900 -0.382700 -0.000000
vn 0.000000 0.000000 1.000000
vn -0.382700 0.923900 0.000000
vn -0.923900 0.382700 0.000000
vn -0.000000 0.000000 -1.000000
usemtl None
s off
f 1/1/1 2/2/1 4/3/1 3/4/1
f 3/5/2 4/6/2 6/7/2 5/8/2
f 5/9/3 6/10/3 8/11/3 7/12/3
f 7/13/4 8/14/4 10/15/4 9/16/4
f 9/17/5 10/18/5 12/19/5 11/20/5
f 11/21/6 12/22/6 14/23/6 13/24/6
f 6/25/7 4/26/7 10/27/7 8/28/7
f 15/29/8 16/30/8 2/31/8 1/32/8
f 13/33/9 14/34/9 16/35/9 15/36/9
f 4/26/7 2/37/7 12/38/7 10/27/7
f 14/39/7 12/38/7 2/37/7 16/40/7
f 1/41/10 3/42/10 5/43/10 7/44/10
f 7/44/10 9/45/10 15/46/10 1/41/10
f 9/45/10 11/47/10 13/48/10 15/46/10
