# Blender v2.76 (sub 0) OBJ File: 'mrfusion.blend'
# www.blender.org
mtllib mrfusion-top.mtl
o structure_Cylinder
v -0.000000 0.090000 -0.401625
v 0.200812 0.090000 -0.347817
v 0.347817 0.090000 -0.200812
v 0.401625 0.090000 0.000000
v 0.347817 0.090000 0.200813
v 0.200813 0.090000 0.347817
v 0.000000 0.090000 0.401625
v -0.200812 0.090000 0.347818
v -0.347817 0.090000 0.200813
v -0.401625 0.090000 0.000000
v -0.347818 0.090000 -0.200812
v -0.200813 0.090000 -0.347817
v -0.000000 0.190000 -0.207867
v 0.103933 0.190000 -0.180018
v 0.211786 0.190000 -0.122275
v 0.244549 0.190000 0.000000
v 0.211786 0.190000 0.122275
v 0.103933 0.190000 0.180018
v 0.000000 0.190000 0.207867
v -0.103933 0.190000 0.180018
v -0.211786 0.190000 0.122275
v -0.244549 0.190000 0.000000
v -0.211786 0.190000 -0.122275
v -0.103934 0.190000 -0.180018
v -0.000000 0.750000 -0.207867
v 0.103933 0.750000 -0.180018
v 0.211786 0.750000 -0.122275
v 0.244549 0.750000 0.000000
v 0.211786 0.750000 0.122275
v 0.103933 0.750000 0.180018
v 0.000000 0.750000 0.207867
v -0.103933 0.750000 0.180018
v -0.211786 0.750000 0.122275
v -0.244549 0.750000 0.000000
v -0.211786 0.750000 -0.122275
v -0.103934 0.750000 -0.180018
v -0.000000 0.770000 -0.176687
v 0.088343 0.770000 -0.153015
v 0.180018 0.770000 -0.103933
v 0.207867 0.770000 0.000000
v 0.180018 0.770000 0.103934
v 0.088343 0.770000 0.153015
v 0.000000 0.770000 0.176687
v -0.088343 0.770000 0.153015
v -0.180018 0.770000 0.103934
v -0.207867 0.770000 0.000000
v -0.180018 0.770000 -0.103933
v -0.088344 0.770000 -0.153015
v 0.103933 0.450000 0.180018
v 0.211786 0.530000 0.122275
v 0.103933 0.220000 -0.180018
v 0.211786 0.220000 -0.122275
v 0.103933 0.220000 0.180018
v -0.000000 0.450000 -0.207867
v -0.000000 0.220000 -0.207867
v 0.000000 0.450000 0.207867
v 0.000000 0.220000 0.207867
v -0.000000 0.335000 -0.207867
v 0.051967 0.335000 -0.193943
v 0.000000 0.335000 0.207867
v 0.051967 0.335000 0.193943
v -0.211786 0.226100 0.122275
v -0.103933 0.226325 0.180018
v -0.103934 0.227034 -0.180018
v -0.244549 0.221944 0.000000
v -0.211786 0.222548 -0.122275
v -0.103934 0.333351 -0.180018
v -0.103933 0.329514 0.180018
v -0.211786 0.333893 0.122275
v -0.244549 0.322822 0.000000
v -0.211786 0.333716 -0.122275
v -0.244549 0.472407 0.000000
v -0.103933 0.469693 0.180018
v -0.211786 0.484617 0.122275
v -0.211786 0.470583 -0.122275
v -0.103934 0.476617 -0.180018
v 0.103933 0.450000 -0.180018
v 0.211786 0.530000 -0.122275
v 0.244549 0.570000 0.000000
v 0.244549 0.220000 0.000000
v 0.211786 0.220000 0.122275
v 0.069130 0.220000 0.005724
v 0.017163 0.335000 0.007944
v 0.176983 0.530000 -0.000282
v 0.069130 0.450000 0.005138
v 0.176983 0.220000 0.000508
vt 0.437599 0.475105
vt 0.332718 0.528332
vt 0.302951 0.408623
vt 0.370565 0.393841
vt 0.037193 0.385386
vt 0.011514 0.270608
vt 0.116858 0.270608
vt 0.132494 0.340496
vt 0.037193 0.155830
vt 0.132494 0.200720
vt 0.109333 0.062938
vt 0.187335 0.158499
vt 0.215111 0.011514
vt 0.242082 0.131884
vt 0.332718 0.012884
vt 0.302952 0.132593
vt 0.437599 0.066111
vt 0.370566 0.147375
vt 0.509800 0.158957
vt 0.414529 0.203909
vt 0.215111 0.529702
vt 0.109333 0.478278
vt 0.187335 0.382717
vt 0.242082 0.409332
vt 0.509800 0.382259
vt 0.414528 0.337307
vt 0.591469 0.670288
vt 0.591469 0.587430
vt 0.613513 0.587429
vt 0.616552 0.670288
vt 0.591468 0.415954
vt 0.591468 0.333095
vt 0.616072 0.333095
vt 0.615919 0.415954
vt 0.591468 0.501692
vt 0.613104 0.501692
vt 0.259775 0.921751
vt 0.168933 0.946104
vt 0.167919 0.915079
vt 0.245135 0.894379
vt 0.030303 0.681383
vt 0.073194 0.601248
vt 0.090666 0.626905
vt 0.054208 0.695020
vt 0.029832 0.839038
vt 0.009132 0.761822
vt 0.036629 0.760658
vt 0.054224 0.826292
vt 0.262568 0.601225
vt 0.305479 0.681351
vt 0.281577 0.694993
vt 0.245103 0.626887
vt 0.305498 0.839901
vt 0.262606 0.920037
vt 0.281592 0.826264
vt 0.009132 0.759501
vt 0.029813 0.682280
vt 0.073232 0.920059
vt 0.030321 0.839934
vt 0.090698 0.894398
vt 0.168889 0.575181
vt 0.259737 0.599512
vt 0.167882 0.606205
vt 0.326669 0.761784
vt 0.305987 0.839005
vt 0.299172 0.760627
vt 0.166912 0.946104
vt 0.076064 0.921773
vt 0.076025 0.599534
vt 0.166868 0.575181
vt 0.305969 0.682247
vt 0.326668 0.759463
vt 0.689677 0.260218
vt 0.689677 0.223779
vt 0.767566 0.187340
vt 0.767566 0.260218
vt 0.611787 0.187340
vt 0.611787 0.260218
vt 0.689677 0.743166
vt 0.689677 0.779604
vt 0.611787 0.816043
vt 0.611787 0.743166
vt 0.591469 0.743166
vt 0.591469 0.816043
vt 0.591468 0.898902
vt 0.611787 0.898902
vt 0.591468 0.260218
vt 0.591468 0.187340
vt 0.970755 0.260218
vt 0.970755 0.187340
vt 0.970755 0.104481
vt 0.821750 0.104481
vt 0.782742 0.501692
vt 0.791012 0.415954
vt 0.970755 0.415954
vt 0.970755 0.501692
vt 0.781507 0.587429
vt 0.970755 0.587429
vt 0.785594 0.670288
vt 0.970755 0.670288
vt 0.780904 0.333095
vt 0.970755 0.333095
vt 0.685961 0.333095
vt 0.688927 0.415954
vt 0.681428 0.501692
vt 0.688807 0.587429
vt 0.688560 0.670288
vt 0.970756 0.743166
vt 0.767566 0.743166
vt 0.476045 0.931795
vt 0.465214 0.856539
vt 0.571692 0.861297
vt 0.547307 0.940315
vt 0.767566 0.816043
vt 0.591468 0.984640
vt 0.611787 0.984640
vt 0.591468 0.104481
vt 0.591468 0.018744
vt 0.611787 0.018744
vt 0.611787 0.104481
vt 0.970756 0.018744
vt 0.848842 0.018744
vt 0.970756 0.984640
vt 0.848842 0.984640
vt 0.821750 0.898902
vt 0.970756 0.898902
vt 0.970756 0.816043
vt 0.365293 0.944821
vt 0.345283 0.864583
vt 0.446160 0.864734
vt 0.437224 0.940238
vt 0.450454 0.793451
vt 0.343403 0.792780
vt 0.346183 0.721007
vt 0.446728 0.722143
vt 0.367018 0.655006
vt 0.438358 0.661632
vt 0.577206 0.789681
vt 0.461392 0.785229
vt 0.470352 0.714388
vt 0.577206 0.717854
vt 0.486408 0.655449
vt 0.558484 0.651223
vt 0.431579 0.624012
vt 0.502988 0.629450
vt 0.502988 0.968978
vt 0.429393 0.983964
vn 0.319000 0.860600 -0.397100
vn -0.531600 0.835000 -0.142400
vn -0.531600 0.835000 0.142400
vn -0.319000 0.860600 0.397100
vn -0.122000 0.882000 0.455200
vn 0.122000 0.882000 0.455200
vn 0.319000 0.860600 0.397100
vn 0.531600 0.835000 0.142400
vn -0.122000 0.882000 -0.455200
vn 0.122000 0.882000 -0.455200
vn 0.531600 0.835000 -0.142400
vn -0.319000 0.860600 -0.397100
vn -0.472000 0.000000 -0.881600
vn -0.472000 0.000000 0.881600
vn -0.965900 0.000000 0.258800
vn -0.965900 0.000000 -0.258800
vn 0.474800 0.870800 0.127200
vn -0.254900 0.841600 -0.476200
vn 0.143200 0.833100 -0.534300
vn -0.254900 0.841600 0.476200
vn 0.254900 0.841600 0.476200
vn -0.143200 0.833000 -0.534300
vn 0.254900 0.841600 -0.476200
vn -0.474800 0.870800 0.127200
vn 0.143200 0.833000 0.534300
vn 0.474800 0.870800 -0.127200
vn -0.474800 0.870800 -0.127200
vn -0.143200 0.833000 0.534300
vn 0.000000 1.000000 0.000000
vn 0.258800 -0.000000 0.965900
vn 0.258800 -0.000000 -0.965900
vn 0.472000 0.000000 -0.881600
vn 0.472000 0.000000 0.881600
vn -0.258800 0.000000 -0.965900
vn -0.258800 0.000000 0.965900
vn 0.570300 -0.811200 0.129300
vn 0.965900 0.000000 -0.258800
vn 0.965900 0.000000 0.258800
vn 0.565200 -0.814300 -0.132300
vn 0.892900 -0.416000 -0.172200
vn 0.893000 0.415600 -0.172500
vn 0.896400 -0.412900 0.161200
vn 0.896300 0.413200 0.160900
vn 0.509400 -0.860500 -0.000000
usemtl None
s off
f 3/1/1 2/2/1 14/3/1 15/4/1
f 11/5/2 10/6/2 22/7/2 23/8/2
f 10/6/3 9/9/3 21/10/3 22/7/3
f 9/9/4 8/11/4 20/12/4 21/10/4
f 8/11/5 7/13/5 19/14/5 20/12/5
f 7/13/6 6/15/6 18/16/6 19/14/6
f 6/15/7 5/17/7 17/18/7 18/16/7
f 5/17/8 4/19/8 16/20/8 17/18/8
f 1/21/9 12/22/9 24/23/9 13/24/9
f 2/2/10 1/21/10 13/24/10 14/3/10
f 4/25/11 3/1/11 15/4/11 16/26/11
f 12/22/12 11/5/12 23/8/12 24/23/12
f 24/27/13 23/28/13 66/29/13 64/30/13
f 21/31/14 20/32/14 63/33/14 62/34/14
f 22/35/15 21/31/15 62/34/15 65/36/15
f 23/28/16 22/35/16 65/36/16 66/29/16
f 29/37/17 28/38/17 40/39/17 41/40/17
f 36/41/18 35/42/18 47/43/18 48/44/18
f 26/45/19 25/46/19 37/47/19 38/48/19
f 33/49/20 32/50/20 44/51/20 45/52/20
f 30/53/21 29/54/21 41/40/21 42/55/21
f 25/56/22 36/57/22 48/44/22 37/47/22
f 27/58/23 26/59/23 38/48/23 39/60/23
f 34/61/24 33/62/24 45/52/24 46/63/24
f 31/64/25 30/65/25 42/55/25 43/66/25
f 28/67/26 27/68/26 39/60/26 40/39/26
f 35/69/27 34/70/27 46/63/27 47/43/27
f 32/71/28 31/72/28 43/66/28 44/51/28
f 41/40/29 40/39/29 43/66/29 42/55/29
f 44/51/29 43/66/29 46/63/29 45/52/29
f 47/43/29 46/63/29 37/47/29 48/44/29
f 38/48/29 37/47/29 40/39/29 39/60/29
f 37/47/29 46/63/29 43/66/29 40/39/29
f 60/73/30 61/74/30 49/75/30 56/76/30
f 53/77/30 61/74/30 60/73/30 57/78/30
f 58/79/31 59/80/31 51/81/31 55/82/31
f 13/83/31 55/82/31 51/81/31 14/84/31
f 15/85/32 14/84/32 51/81/32 52/86/32
f 19/87/30 18/88/30 53/77/30 57/78/30
f 31/89/30 56/76/30 49/75/30 30/90/30
f 29/91/33 30/90/33 49/75/33 50/92/33
f 72/93/15 74/94/15 33/95/15 34/96/15
f 75/97/16 72/93/16 34/96/16 35/98/16
f 76/99/13 75/97/13 35/98/13 36/100/13
f 74/94/14 73/101/14 32/102/14 33/95/14
f 62/34/14 63/33/14 68/103/14 69/104/14
f 65/36/15 62/34/15 69/104/15 70/105/15
f 66/29/16 65/36/16 70/105/16 71/106/16
f 64/30/13 66/29/13 71/106/13 67/107/13
f 69/104/14 68/103/14 73/101/14 74/94/14
f 70/105/15 69/104/15 74/94/15 72/93/15
f 71/106/16 70/105/16 72/93/16 75/97/16
f 67/107/13 71/106/13 75/97/13 76/99/13
f 36/100/34 25/108/34 54/109/34 76/99/34
f 58/79/34 67/107/34 76/99/34 54/109/34
f 55/82/34 64/30/34 67/107/34 58/79/34
f 24/27/34 64/30/34 55/82/34 13/83/34
f 32/102/35 73/101/35 56/76/35 31/89/35
f 56/76/35 73/101/35 68/103/35 60/73/35
f 60/73/35 68/103/35 63/33/35 57/78/35
f 20/32/35 19/87/35 57/78/35 63/33/35
f 84/110/36 85/111/36 77/112/36 78/113/36
f 58/79/31 54/109/31 77/114/31 59/80/31
f 16/115/37 15/85/37 52/86/37 80/116/37
f 17/117/38 16/118/38 80/119/38 81/120/38
f 18/88/33 17/117/33 81/120/33 53/77/33
f 28/121/38 29/91/38 50/92/38 79/122/38
f 28/123/37 79/124/37 78/125/37 27/126/37
f 27/126/32 78/125/32 77/114/32 26/127/32
f 25/108/31 26/127/31 77/114/31 54/109/31
f 50/128/39 49/129/39 85/130/39 84/131/39
f 83/132/40 85/130/40 49/129/40 61/133/40
f 61/133/41 53/134/41 82/135/41 83/132/41
f 82/135/29 53/134/29 81/136/29 86/137/29
f 59/138/42 77/112/42 85/111/42 83/139/42
f 83/139/43 82/140/43 51/141/43 59/138/43
f 51/141/29 82/140/29 86/142/29 52/143/29
f 80/144/29 52/145/29 86/137/29 81/136/29
f 50/128/44 84/131/44 78/146/44 79/147/44
