# Blender v2.76 (sub 0) OBJ File: 'mrfusion.blend'
# www.blender.org
mtllib mrfusion-bottom.mtl
o structurebottom_Cylinder.002
v -0.000000 -0.200000 -0.425250
v -0.000000 0.090000 -0.401625
v 0.212625 -0.200000 -0.368277
v 0.200812 0.090000 -0.347817
v 0.368277 -0.200000 -0.212625
v 0.347817 0.090000 -0.200812
v 0.425250 -0.200000 0.000000
v 0.401625 0.090000 0.000000
v 0.368277 -0.200000 0.212625
v 0.347817 0.090000 0.200813
v 0.212625 -0.200000 0.368277
v 0.200813 0.090000 0.347817
v 0.000000 -0.200000 0.425250
v 0.000000 0.090000 0.401625
v -0.212625 -0.200000 0.368277
v -0.200812 0.090000 0.347818
v -0.368277 -0.200000 0.212625
v -0.347817 0.090000 0.200813
v -0.425250 -0.200000 0.000000
v -0.401625 0.090000 0.000000
v -0.368277 -0.200000 -0.212625
v -0.347818 0.090000 -0.200812
v -0.212625 -0.200000 -0.368277
v -0.200813 0.090000 -0.347817
vt 0.936047 0.530109
vt 0.927315 0.945512
vt 0.630437 0.945512
vt 0.621705 0.530109
vt 0.133314 0.566362
vt 0.059463 0.438448
vt 0.059463 0.290746
vt 0.133314 0.162832
vt 0.261228 0.088981
vt 0.408930 0.088981
vt 0.536844 0.162832
vt 0.536844 0.566362
vt 0.408930 0.640213
vt 0.261228 0.640213
vt 0.610695 0.290746
vt 0.610695 0.438448
vn 0.258000 0.078400 -0.962900
vn 0.704900 0.078400 -0.704900
vn 0.962900 0.078400 -0.258000
vn 0.962900 0.078400 0.258000
vn 0.704900 0.078400 0.704900
vn 0.258000 0.078400 0.962900
vn -0.258000 0.078400 0.962900
vn -0.704900 0.078400 0.704900
vn -0.962900 0.078400 0.258000
vn -0.962900 0.078400 -0.258000
vn 0.000000 -1.000000 0.000000
vn -0.258000 0.078400 -0.962900
vn -0.704900 0.078400 -0.704900
usemtl None
s off
f 1/1/1 2/2/1 4/3/1 3/4/1
f 3/1/2 4/2/2 6/3/2 5/4/2
f 5/1/3 6/2/3 8/3/3 7/4/3
f 7/1/4 8/2/4 10/3/4 9/4/4
f 9/1/5 10/2/5 12/3/5 11/4/5
f 11/1/6 12/2/6 14/3/6 13/4/6
f 13/1/7 14/2/7 16/3/7 15/4/7
f 15/1/8 16/2/8 18/3/8 17/4/8
f 17/1/9 18/2/9 20/3/9 19/4/9
f 19/1/10 20/2/10 22/3/10 21/4/10
f 13/5/11 15/6/11 17/7/11 19/8/11
f 23/1/12 24/2/12 2/3/12 1/4/12
f 21/1/13 22/2/13 24/3/13 23/4/13
f 19/8/11 21/9/11 23/10/11 1/11/11
f 7/12/11 9/13/11 11/14/11 13/5/11
f 1/11/11 3/15/11 5/16/11 7/12/11
f 13/5/11 19/8/11 1/11/11 7/12/11
