# Blender v2.76 (sub 0) OBJ File: 'energymodule.blend'
# www.blender.org
mtllib energymodule-cube.mtl
o energycube_Cube
v -0.100000 -0.100000 0.100000
v -0.100000 -0.100000 -0.100000
v 0.100000 -0.100000 -0.100000
v 0.100000 -0.100000 0.100000
v -0.100000 0.100000 0.100000
v -0.100000 0.100000 -0.100000
v 0.100000 0.100000 -0.100000
v 0.100000 0.100000 0.100000
vt -0.000000 1.000000
vt 1.000000 1.000000
vt 1.000000 -0.000000
vt -0.000000 -0.000000
vn -1.000000 0.000000 0.000000
vn 0.000000 0.000000 -1.000000
vn 1.000000 0.000000 0.000000
vn 0.000000 0.000000 1.000000
vn 0.000000 -1.000000 0.000000
vn 0.000000 1.000000 0.000000
usemtl None
s off
f 5/1/1 6/2/1 2/3/1 1/4/1
f 6/1/2 7/2/2 3/3/2 2/4/2
f 7/2/3 8/1/3 4/4/3 3/3/3
f 8/2/4 5/1/4 1/4/4 4/3/4
f 1/4/5 2/1/5 3/2/5 4/3/5
f 8/3/6 7/2/6 6/1/6 5/4/6
