# Blender v2.76 (sub 0) OBJ File: 'hoverboard.blend'
# www.blender.org
mtllib mattel_hoverboardobj.mtl
o board_Cube.001
v -0.700000 0.020000 0.250000
v -0.720000 0.055000 0.250000
v -0.700000 0.020000 -0.250000
v -0.720000 0.055000 -0.250000
v 0.490000 -0.030000 0.250000
v 0.490000 0.005000 0.250000
v 0.490495 -0.030000 -0.250000
v 0.490495 0.005000 -0.250000
v -0.542500 0.005000 0.250000
v -0.542500 -0.030000 0.250000
v -0.542500 -0.030000 -0.250000
v -0.542500 0.005000 -0.250000
v 0.710000 0.005000 0.125000
v 0.710000 -0.030000 -0.125000
v 0.710000 0.005000 -0.125000
v 0.710000 -0.030000 0.125000
v 0.655000 0.005000 0.187500
v 0.654608 -0.030000 -0.187500
v 0.740000 0.005000 -0.062500
v 0.740000 -0.030000 0.062500
v 0.740000 0.005000 0.062500
v 0.740000 -0.030000 -0.062500
v 0.654608 0.005000 -0.187500
v 0.655000 -0.030000 0.187500
v 0.602500 0.005000 0.218750
v 0.602500 -0.030000 0.218750
v 0.602304 -0.030000 -0.218750
v 0.602304 0.005000 -0.218750
v 0.750000 0.005000 0.020833
v 0.750000 0.005000 -0.020833
v 0.750000 -0.030000 -0.020833
v 0.750000 -0.030000 0.020833
v 0.400000 -0.055000 -0.180000
v 0.400000 -0.015000 -0.180000
v 0.490000 -0.055000 -0.155885
v 0.490000 -0.015000 -0.155885
v 0.555885 -0.055000 -0.090000
v 0.555885 -0.015000 -0.090000
v 0.580000 -0.055000 0.000000
v 0.580000 -0.015000 0.000000
v 0.555885 -0.055000 0.090000
v 0.555885 -0.015000 0.090000
v 0.490000 -0.055000 0.155885
v 0.490000 -0.015000 0.155885
v 0.400000 -0.055000 0.180000
v 0.400000 -0.015000 0.180000
v 0.310000 -0.055000 0.155885
v 0.310000 -0.015000 0.155885
v 0.244115 -0.055000 0.090000
v 0.244115 -0.015000 0.090000
v 0.220000 -0.055000 0.000000
v 0.220000 -0.015000 0.000000
v 0.244115 -0.055000 -0.090000
v 0.244115 -0.015000 -0.090000
v 0.310000 -0.055000 -0.155885
v 0.310000 -0.015000 -0.155885
v -0.300000 -0.055000 -0.180000
v -0.300000 -0.015000 -0.180000
v -0.210000 -0.055000 -0.155885
v -0.210000 -0.015000 -0.155885
v -0.144115 -0.055000 -0.090000
v -0.144115 -0.015000 -0.090000
v -0.120000 -0.055000 0.000000
v -0.120000 -0.015000 0.000000
v -0.144115 -0.055000 0.090000
v -0.144115 -0.015000 0.090000
v -0.210000 -0.055000 0.155885
v -0.210000 -0.015000 0.155885
v -0.300000 -0.055000 0.180000
v -0.300000 -0.015000 0.180000
v -0.390000 -0.055000 0.155885
v -0.390000 -0.015000 0.155885
v -0.455885 -0.055000 0.090000
v -0.455885 -0.015000 0.090000
v -0.480000 -0.055000 0.000000
v -0.480000 -0.015000 0.000000
v -0.455885 -0.055000 -0.090000
v -0.455885 -0.015000 -0.090000
v -0.390000 -0.055000 -0.155885
v -0.390000 -0.015000 -0.155885
v -0.070000 -0.040000 0.070000
v -0.070000 0.000000 0.070000
v -0.070000 -0.040000 -0.070000
v -0.070000 0.000000 -0.070000
v 0.170000 -0.040000 0.070000
v 0.170000 0.000000 0.070000
v 0.170000 -0.040000 -0.070000
v 0.170000 0.000000 -0.070000
vt 0.097788 0.295887
vt 0.709088 0.295888
vt 0.708795 0.591775
vt 0.097788 0.591774
vt 0.261889 0.769307
vt 0.557776 0.769307
vt 0.557776 0.818106
vt 0.261889 0.818106
vt 0.105040 0.880131
vt 0.716339 0.880130
vt 0.716339 0.927472
vt 0.105040 0.927473
vt 0.330984 0.769307
vt 0.261889 0.721965
vt 0.330984 0.721965
vt 0.718615 0.952698
vt 0.716660 1.000000
vt 0.106171 0.974773
vt 0.108125 0.927473
vt 0.109128 0.295887
vt 0.109128 0.000000
vt 0.720134 0.000000
vt 0.720427 0.295887
vt 0.000000 0.000000
vt 0.000000 0.295887
vt 0.013780 0.953188
vt 0.000000 1.000000
vt 0.000000 0.591774
vt 0.000000 0.850542
vt 0.011836 0.897884
vt 0.623253 0.769307
vt 0.573831 0.769307
vt 0.573831 0.721965
vt 0.623253 0.721965
vt 0.457433 0.769307
vt 0.416407 0.769307
vt 0.416407 0.721965
vt 0.457433 0.721965
vt 0.659308 0.769307
vt 0.659308 0.721965
vt 0.532805 0.769307
vt 0.532805 0.721965
vt 0.367140 0.769307
vt 0.367140 0.721965
vt 0.728010 0.769307
vt 0.728010 0.721965
vt 0.786709 0.018493
vt 0.786593 0.277394
vt 0.817777 0.036986
vt 0.817545 0.258901
vt 0.850325 0.073972
vt 0.850325 0.221915
vt 0.856739 0.406845
vt 0.856738 0.480817
vt 0.838985 0.517803
vt 0.838985 0.369860
vt 0.775254 0.314381
vt 0.775369 0.573282
vt 0.806206 0.332874
vt 0.806437 0.554789
vt 0.868078 0.110957
vt 0.868078 0.184929
vt 0.873996 0.135615
vt 0.873996 0.160272
vt 0.507448 0.769307
vt 0.482791 0.769307
vt 0.482791 0.721965
vt 0.507448 0.721965
vt 0.862656 0.431503
vt 0.862656 0.456160
vt 0.101815 0.618268
vt 0.101815 0.594598
vt 0.156953 0.594598
vt 0.156953 0.618268
vt 0.168789 0.597769
vt 0.216540 0.625338
vt 0.204704 0.645838
vt 0.225204 0.634002
vt 0.252773 0.681754
vt 0.232273 0.693589
vt 0.255944 0.693589
vt 0.255944 0.748728
vt 0.232273 0.748728
vt 0.252773 0.760563
vt 0.225204 0.808314
vt 0.204704 0.796479
vt 0.216540 0.816978
vt 0.168788 0.844548
vt 0.156953 0.824048
vt 0.156953 0.847719
vt 0.101814 0.847719
vt 0.101814 0.824048
vt 0.089979 0.844548
vt 0.042228 0.816978
vt 0.054063 0.796479
vt 0.033563 0.808314
vt 0.005994 0.760563
vt 0.026494 0.748727
vt 0.002823 0.748727
vt 0.002823 0.693589
vt 0.026494 0.693589
vt 0.054063 0.645838
vt 0.042228 0.625338
vt 0.089979 0.597769
vt 0.005994 0.681753
vt 0.033564 0.634002
vt 0.261889 0.698294
vt 0.261889 0.615446
vt 0.285560 0.615446
vt 0.285560 0.698294
vt 0.427586 0.698294
vt 0.427586 0.721965
vt 0.285560 0.721965
vt 0.427586 0.615446
vn 0.000000 -1.000000 -0.000000
vn -0.868200 -0.496100 0.000000
vn 0.000000 0.000000 -1.000000
vn 0.267600 0.000000 0.963500
vn 0.000000 0.000000 1.000000
vn 0.000000 1.000000 -0.000000
vn 0.271100 0.962500 0.000000
vn -0.302600 -0.953100 0.000000
vn 0.748400 0.000000 -0.663300
vn 0.901500 0.000000 0.432700
vn 0.512900 0.000000 -0.858400
vn 0.901500 0.000000 -0.432700
vn 0.750700 0.000000 0.660600
vn 0.511500 0.000000 0.859300
vn 0.269200 0.000000 -0.963100
vn 1.000000 0.000000 0.000000
vn 0.972400 0.000000 -0.233400
vn 0.972400 0.000000 0.233400
vn 0.258800 0.000000 -0.965900
vn 0.707100 0.000000 -0.707100
vn 0.965900 0.000000 -0.258800
vn 0.965900 0.000000 0.258800
vn 0.707100 0.000000 0.707100
vn 0.258800 0.000000 0.965900
vn -0.258800 0.000000 0.965900
vn -0.707100 0.000000 0.707100
vn -0.965900 0.000000 0.258800
vn -0.965900 0.000000 -0.258800
vn -0.258800 0.000000 -0.965900
vn -0.707100 0.000000 -0.707100
vn -1.000000 0.000000 0.000000
usemtl None
s off
f 11/1/1 7/2/1 5/3/1 10/4/1
usemtl None_Untitled.002
f 2/5/2 4/6/2 3/7/2 1/8/2
f 12/9/3 8/10/3 7/11/3 11/12/3
f 25/13/4 6/5/4 5/14/4 26/15/4
f 5/16/5 6/17/5 9/18/5 10/19/5
f 12/20/6 9/21/6 6/22/6 8/23/6
f 2/24/7 9/21/7 12/20/7 4/25/7
f 1/26/5 10/19/5 9/18/5 2/27/5
f 1/28/8 3/25/8 11/1/8 10/4/8
f 4/29/3 12/9/3 11/12/3 3/30/3
f 23/31/9 15/32/9 14/33/9 18/34/9
f 21/35/10 13/36/10 16/37/10 20/38/10
f 28/39/11 23/31/11 18/34/11 27/40/11
f 15/32/12 19/41/12 22/42/12 14/33/12
f 13/36/13 17/43/13 24/44/13 16/37/13
f 17/43/14 25/13/14 26/15/14 24/44/14
f 8/45/15 28/39/15 27/40/15 7/46/15
f 25/47/6 28/48/6 8/23/6 6/22/6
f 28/48/6 25/47/6 17/49/6 23/50/6
f 23/50/6 17/49/6 13/51/6 15/52/6
f 22/53/1 20/54/1 16/55/1 14/56/1
f 27/57/1 26/58/1 5/3/1 7/2/1
f 26/58/1 27/57/1 18/59/1 24/60/1
f 24/60/1 18/59/1 14/56/1 16/55/1
f 21/61/6 19/62/6 15/52/6 13/51/6
f 19/62/6 21/61/6 29/63/6 30/64/6
f 30/65/16 29/66/16 32/67/16 31/68/16
f 20/54/1 22/53/1 31/69/1 32/70/1
f 22/42/17 19/41/17 30/65/17 31/68/17
f 20/38/18 32/67/18 29/66/18 21/35/18
f 33/71/19 34/72/19 36/73/19 35/74/19
f 35/74/20 36/75/20 38/76/20 37/77/20
f 37/77/21 38/78/21 40/79/21 39/80/21
f 39/80/22 40/81/22 42/82/22 41/83/22
f 41/83/23 42/84/23 44/85/23 43/86/23
f 43/86/24 44/87/24 46/88/24 45/89/24
f 45/89/25 46/90/25 48/91/25 47/92/25
f 47/92/26 48/93/26 50/94/26 49/95/26
f 49/95/27 50/96/27 52/97/27 51/98/27
f 51/98/28 52/99/28 54/100/28 53/101/28
f 55/102/29 56/103/29 34/104/29 33/71/29
f 53/101/30 54/105/30 56/106/30 55/102/30
f 37/77/1 39/80/1 41/83/1 43/86/1
f 57/74/19 58/75/19 60/76/19 59/77/19
f 59/77/20 60/78/20 62/79/20 61/80/20
f 61/80/21 62/81/21 64/82/21 63/83/21
f 63/83/22 64/84/22 66/85/22 65/86/22
f 65/86/23 66/87/23 68/88/23 67/89/23
f 67/89/24 68/90/24 70/91/24 69/92/24
f 69/92/25 70/93/25 72/94/25 71/95/25
f 71/95/26 72/96/26 74/97/26 73/98/26
f 73/98/27 74/99/27 76/100/27 75/101/27
f 75/101/28 76/105/28 78/106/28 77/102/28
f 79/71/29 80/72/29 58/73/29 57/74/29
f 77/102/30 78/103/30 80/104/30 79/71/30
f 59/77/1 61/80/1 63/83/1 65/86/1
f 82/107/31 84/108/31 83/109/31 81/110/31
f 84/110/3 88/111/3 87/112/3 83/113/3
f 88/109/16 86/110/16 85/107/16 87/108/16
f 86/112/5 82/113/5 81/110/5 85/111/5
f 81/110/1 83/109/1 87/114/1 85/111/1
f 33/71/1 35/74/1 37/77/1 55/102/1
f 49/95/1 51/98/1 53/101/1 55/102/1
f 43/86/1 45/89/1 47/92/1 49/95/1
f 37/77/1 43/86/1 49/95/1 55/102/1
f 57/74/1 59/77/1 77/102/1 79/71/1
f 71/95/1 73/98/1 75/101/1 77/102/1
f 65/86/1 67/89/1 69/92/1 71/95/1
f 59/77/1 65/86/1 71/95/1 77/102/1
