# Blender v2.76 (sub 0) OBJ File: 'pitbull_hoverboard.blend'
# www.blender.org
mtllib hoverb.mtl
o hoverb_Cube
v -0.510000 -0.050000 0.375000
v -0.510000 -0.010000 0.375000
v -0.510000 -0.050000 -0.375000
v -0.510000 -0.010000 -0.375000
v 0.600000 -0.050000 0.199800
v 0.600000 -0.010000 0.199800
v 0.600000 -0.050000 -0.199800
v 0.600000 -0.010000 -0.199800
v -0.660000 -0.010000 0.331667
v -0.765000 -0.010000 0.248333
v -0.815104 -0.010000 0.165000
v -0.850000 -0.010000 0.041667
v -0.850000 -0.010000 -0.041667
v -0.815104 -0.010000 -0.165000
v -0.765000 -0.010000 -0.248333
v -0.660000 -0.010000 -0.331667
v -0.660000 -0.050000 -0.331667
v -0.765000 -0.050000 -0.248333
v -0.815104 -0.050000 -0.165000
v -0.850000 -0.050000 -0.041667
v -0.850000 -0.050000 0.041667
v -0.815104 -0.050000 0.165000
v -0.765000 -0.050000 0.248333
v -0.660000 -0.050000 0.331667
v -0.510000 -0.050000 0.275000
v -0.510000 -0.010000 0.275000
v -0.510000 -0.050000 -0.275000
v -0.510000 -0.010000 -0.275000
v -0.225000 -0.050000 -0.261250
v -0.225000 -0.010000 -0.261250
v -0.225000 -0.050000 0.261250
v -0.225000 -0.010000 0.261250
v -0.175000 -0.050000 -0.346750
v -0.175000 -0.010000 -0.346750
v -0.175000 -0.050000 0.346750
v -0.175000 -0.010000 0.346750
v -0.095000 -0.050000 -0.269325
v -0.095000 -0.010000 -0.269325
v -0.095000 -0.050000 0.269325
v -0.095000 -0.010000 0.269325
v -0.045000 -0.050000 -0.303525
v -0.045000 -0.010000 -0.303525
v -0.045000 -0.050000 0.303525
v -0.045000 -0.010000 0.303525
v 0.005000 -0.050000 0.269325
v 0.005000 -0.010000 0.269325
v 0.005000 -0.050000 -0.269325
v 0.005000 -0.010000 -0.269325
v 0.055000 -0.050000 -0.303525
v 0.055000 -0.010000 -0.303525
v 0.105000 -0.050000 -0.255859
v 0.105000 -0.010000 -0.255859
v 0.055000 -0.050000 0.303525
v 0.055000 -0.010000 0.303525
v 0.105000 -0.050000 0.255859
v 0.105000 -0.010000 0.255859
v 0.155000 -0.050000 0.274514
v 0.155000 -0.010000 0.274514
v 0.205000 -0.050000 0.238153
v 0.205000 -0.010000 0.238153
v 0.155000 -0.050000 -0.274514
v 0.155000 -0.010000 -0.274514
v 0.205000 -0.050000 -0.238153
v 0.205000 -0.010000 -0.238153
v 0.255000 -0.050000 -0.245855
v 0.255000 -0.010000 -0.245855
v 0.255000 -0.050000 0.245855
v 0.255000 -0.010000 0.245855
v 0.700000 -0.010000 -0.081169
v 0.900000 -0.010000 0.000000
v 0.700000 -0.010000 0.081169
v 0.700000 -0.050000 0.081169
v 0.900000 -0.020000 0.000000
v 0.700000 -0.050000 -0.081169
v -0.585000 -0.010000 -0.353333
v -0.585000 -0.050000 0.353333
v -0.585000 -0.010000 0.353333
v -0.585000 -0.050000 -0.353333
v 0.380000 -0.075000 -0.160000
v 0.380000 -0.035000 -0.160000
v 0.460000 -0.075000 -0.138564
v 0.460000 -0.035000 -0.138564
v 0.518564 -0.075000 -0.080000
v 0.518564 -0.035000 -0.080000
v 0.540000 -0.075000 0.000000
v 0.540000 -0.035000 0.000000
v 0.518564 -0.075000 0.080000
v 0.518564 -0.035000 0.080000
v 0.460000 -0.075000 0.138564
v 0.460000 -0.035000 0.138564
v 0.380000 -0.075000 0.160000
v 0.380000 -0.035000 0.160000
v 0.300000 -0.075000 0.138564
v 0.300000 -0.035000 0.138564
v 0.241436 -0.075000 0.080000
v 0.241436 -0.035000 0.080000
v 0.220000 -0.075000 0.000000
v 0.220000 -0.035000 0.000000
v 0.241436 -0.075000 -0.080000
v 0.241436 -0.035000 -0.080000
v 0.300000 -0.075000 -0.138564
v 0.300000 -0.035000 -0.138564
v -0.350000 -0.075000 -0.160000
v -0.350000 -0.035000 -0.160000
v -0.270000 -0.075000 -0.138564
v -0.270000 -0.035000 -0.138564
v -0.211436 -0.075000 -0.080000
v -0.211436 -0.035000 -0.080000
v -0.190000 -0.075000 0.000000
v -0.190000 -0.035000 0.000000
v -0.211436 -0.075000 0.080000
v -0.211436 -0.035000 0.080000
v -0.270000 -0.075000 0.138564
v -0.270000 -0.035000 0.138564
v -0.350000 -0.075000 0.160000
v -0.350000 -0.035000 0.160000
v -0.430000 -0.075000 0.138564
v -0.430000 -0.035000 0.138564
v -0.488564 -0.075000 0.080000
v -0.488564 -0.035000 0.080000
v -0.510000 -0.075000 0.000000
v -0.510000 -0.035000 0.000000
v -0.488564 -0.075000 -0.080000
v -0.488564 -0.035000 -0.080000
v -0.430000 -0.075000 -0.138564
v -0.430000 -0.035000 -0.138564
v -0.100000 -0.070000 0.065000
v -0.100000 -0.040000 0.065000
v -0.100000 -0.070000 -0.065000
v -0.100000 -0.040000 -0.065000
v 0.100000 -0.070000 0.065000
v 0.100000 -0.040000 0.065000
v 0.100000 -0.070000 -0.065000
v 0.100000 -0.040000 -0.065000
v 0.642717 -0.067358 0.240000
v 0.642717 -0.047358 0.240000
v 0.642717 -0.067358 -0.240000
v 0.642717 -0.047358 -0.240000
v 0.722717 -0.067358 0.300000
v 0.722717 -0.047358 0.300000
v 0.722717 -0.067358 -0.300000
v 0.722717 -0.047358 -0.300000
v 0.647717 -0.047358 -0.180000
v 0.622717 -0.047358 -0.060000
v 0.622717 -0.047358 0.060000
v 0.647717 -0.047358 0.180000
v 0.647717 -0.067358 0.180000
v 0.622717 -0.067358 0.060000
v 0.622717 -0.067358 -0.060000
v 0.647717 -0.067358 -0.180000
v 0.597717 -0.047358 0.180000
v 0.562717 -0.047358 0.060000
v 0.562717 -0.047358 -0.060000
v 0.597717 -0.047358 -0.180000
v 0.597717 -0.067358 -0.180000
v 0.562717 -0.067358 -0.060000
v 0.562717 -0.067358 0.060000
v 0.597717 -0.067358 0.180000
v -0.360255 -0.015000 -0.140000
v -0.360255 0.015000 -0.140000
v -0.290255 -0.015000 -0.121244
v -0.290255 0.015000 -0.121244
v -0.239012 -0.015000 -0.070000
v -0.239012 0.015000 -0.070000
v -0.220255 -0.015000 0.000000
v -0.220255 0.015000 0.000000
v -0.239012 -0.015000 0.070000
v -0.239012 0.015000 0.070000
v -0.290255 -0.015000 0.121244
v -0.290255 0.015000 0.121244
v -0.360255 -0.015000 0.140000
v -0.360255 0.015000 0.140000
v -0.430255 -0.015000 0.121244
v -0.430255 0.015000 0.121244
v -0.481499 -0.015000 0.070000
v -0.481499 0.015000 0.070000
v -0.500255 -0.015000 0.000000
v -0.500255 0.015000 0.000000
v -0.481499 -0.015000 -0.070000
v -0.481499 0.015000 -0.070000
v -0.430255 -0.015000 -0.121244
v -0.430255 0.015000 -0.121244
v -0.450000 -0.045000 0.380000
v -0.450000 -0.030000 0.380000
v -0.450000 -0.030000 0.250000
v -0.450000 -0.015000 0.250000
v -0.270000 -0.045000 0.380000
v -0.270000 -0.030000 0.380000
v -0.270000 -0.030000 0.250000
v -0.270000 -0.015000 0.250000
v -0.450000 -0.030000 -0.250000
v -0.450000 -0.015000 -0.250000
v -0.450000 -0.045000 -0.380000
v -0.450000 -0.030000 -0.380000
v -0.270000 -0.030000 -0.250000
v -0.270000 -0.015000 -0.250000
v -0.270000 -0.045000 -0.380000
v -0.270000 -0.030000 -0.380000
v -0.390000 -0.120000 0.290000
v -0.390000 -0.105000 0.290000
v -0.390000 -0.120000 -0.290000
v -0.390000 -0.105000 -0.290000
v -0.310000 -0.120000 0.290000
v -0.310000 -0.105000 0.290000
v -0.310000 -0.120000 -0.290000
v -0.310000 -0.105000 -0.290000
v -0.375000 -0.108056 0.025000
v -0.375000 -0.068056 0.025000
v -0.375000 -0.108056 -0.025000
v -0.375000 -0.068056 -0.025000
v -0.325000 -0.108056 0.025000
v -0.325000 -0.068056 0.025000
v -0.325000 -0.108056 -0.025000
v -0.325000 -0.068056 -0.025000
v 0.800000 -0.010000 -0.041584
v 0.800000 -0.035000 -0.041584
vt 0.691617 0.714350
vt 0.725584 0.714350
vt 0.725584 0.731754
vt 0.691617 0.731754
vt 0.538638 0.945823
vt 0.471130 0.945823
vt 0.471130 0.928419
vt 0.538638 0.928419
vt 0.657651 0.731754
vt 0.657651 0.714350
vt 0.691617 0.714350
vt 0.599326 0.731754
vt 0.599326 0.714350
vt 0.557019 0.731754
vt 0.557019 0.714350
vt 0.501251 0.731754
vt 0.501250 0.714350
vt 0.464992 0.714350
vt 0.501250 0.714350
vt 0.464992 0.731753
vt 0.557019 0.714350
vt 0.599326 0.714350
vt 0.657651 0.714350
vt 0.725584 0.714350
vt 0.769094 0.714350
vt 0.769094 0.731754
vt 0.769094 0.714350
vt 0.893240 0.714350
vt 0.893240 0.731754
vt 0.936335 0.714350
vt 0.936335 0.731754
vt 0.089992 0.963788
vt 0.089992 0.946384
vt 0.138432 0.946384
vt 0.138432 0.963788
vt 0.089992 0.945822
vt 0.089992 0.928419
vt 0.138432 0.928419
vt 0.138432 0.945823
vt 0.164789 0.946384
vt 0.164789 0.963788
vt 0.164789 0.928419
vt 0.164789 0.945823
vt 0.191146 0.928419
vt 0.191146 0.945823
vt 0.191146 0.946384
vt 0.191146 0.963788
vt 0.217504 0.946384
vt 0.217504 0.963788
vt 0.247560 0.946384
vt 0.247560 0.963788
vt 0.217503 0.928419
vt 0.217503 0.945823
vt 0.247560 0.928419
vt 0.247560 0.945823
vt 0.270780 0.928419
vt 0.270780 0.945823
vt 0.297679 0.928419
vt 0.297679 0.945823
vt 0.270780 0.946384
vt 0.270780 0.963788
vt 0.297679 0.946384
vt 0.297679 0.963788
vt 0.319690 0.946384
vt 0.319690 0.963788
vt 0.319690 0.928419
vt 0.319690 0.945823
vt 0.471130 0.963788
vt 0.471130 0.946384
vt 0.538638 0.946384
vt 0.538638 0.963788
vt 0.632551 0.945823
vt 0.632551 0.941472
vt 0.015464 0.418535
vt 0.015464 0.562116
vt 0.000281 0.508455
vt 0.000281 0.472196
vt 0.037264 0.382277
vt 0.037264 0.598374
vt 0.082949 0.346018
vt 0.082949 0.634632
vt 0.148214 0.609977
vt 0.148214 0.370674
vt 0.272216 0.376656
vt 0.272216 0.603994
vt 0.115581 0.336591
vt 0.148214 0.327164
vt 0.115581 0.644060
vt 0.148214 0.653487
vt 0.293971 0.339456
vt 0.293971 0.641195
vt 0.328779 0.373143
vt 0.328779 0.607508
vt 0.350534 0.358263
vt 0.350533 0.622388
vt 0.372288 0.373143
vt 0.372288 0.607508
vt 0.394043 0.358263
vt 0.394043 0.622388
vt 0.415798 0.379002
vt 0.415798 0.601649
vt 0.437553 0.370885
vt 0.437553 0.609765
vt 0.459308 0.386706
vt 0.459308 0.593945
vt 0.481063 0.383355
vt 0.481062 0.597296
vt 0.631171 0.403393
vt 0.631171 0.577258
vt 0.674681 0.455009
vt 0.674681 0.525642
vt 0.674681 0.128126
vt 0.674681 0.198758
vt 0.631171 0.250374
vt 0.631171 0.076509
vt 0.481062 0.270413
vt 0.481063 0.056471
vt 0.272216 0.049773
vt 0.272216 0.277111
vt 0.148213 0.283093
vt 0.148214 0.043790
vt 0.293971 0.012572
vt 0.293971 0.314311
vt 0.328779 0.046259
vt 0.328778 0.280624
vt 0.350533 0.031379
vt 0.350533 0.295504
vt 0.372288 0.046259
vt 0.372288 0.280624
vt 0.394043 0.031379
vt 0.394043 0.295505
vt 0.415798 0.052118
vt 0.415798 0.274765
vt 0.437553 0.044002
vt 0.437553 0.282882
vt 0.459308 0.059822
vt 0.459308 0.267062
vt 0.115581 0.317176
vt 0.082949 0.307749
vt 0.148213 0.326603
vt 0.115581 0.009708
vt 0.148214 0.000281
vt 0.082949 0.019135
vt 0.037264 0.271491
vt 0.037264 0.055393
vt 0.015464 0.235233
vt 0.015464 0.091651
vt 0.000281 0.181571
vt 0.000281 0.145313
vt 0.152171 0.756713
vt 0.167244 0.765415
vt 0.149226 0.796623
vt 0.134154 0.787921
vt 0.142855 0.802993
vt 0.111648 0.821011
vt 0.102946 0.805939
vt 0.102946 0.823343
vt 0.066910 0.823342
vt 0.066910 0.805939
vt 0.058208 0.821011
vt 0.027000 0.802993
vt 0.035702 0.787921
vt 0.020630 0.796623
vt 0.002612 0.765415
vt 0.017685 0.756713
vt 0.000281 0.756713
vt 0.000281 0.720677
vt 0.017685 0.720677
vt 0.002612 0.711976
vt 0.020630 0.680768
vt 0.035702 0.689470
vt 0.027000 0.674398
vt 0.058208 0.656380
vt 0.066910 0.671452
vt 0.066910 0.654048
vt 0.102946 0.654048
vt 0.102946 0.671452
vt 0.111648 0.656380
vt 0.142855 0.674397
vt 0.134153 0.689470
vt 0.152171 0.720677
vt 0.169575 0.720677
vt 0.169575 0.756713
vt 0.149226 0.680768
vt 0.167243 0.711975
vt 0.692981 0.844627
vt 0.692981 0.788064
vt 0.706034 0.788064
vt 0.706034 0.844627
vt 0.605962 0.775012
vt 0.692981 0.775012
vt 0.605962 0.788064
vt 0.605962 0.844627
vt 0.237408 0.894081
vt 0.270041 0.894081
vt 0.270041 0.902783
vt 0.237408 0.902783
vt 0.313550 0.894081
vt 0.313550 0.902783
vt 0.663183 0.866944
vt 0.601612 0.866944
vt 0.601612 0.858242
vt 0.663183 0.858242
vt 0.000281 0.894081
vt 0.043790 0.894081
vt 0.043790 0.902783
vt 0.000281 0.902783
vt 0.496627 0.884348
vt 0.496627 0.858242
vt 0.548839 0.873470
vt 0.548839 0.895225
vt 0.444416 0.884347
vt 0.444416 0.858242
vt 0.883630 0.866944
vt 0.822060 0.866944
vt 0.822060 0.858242
vt 0.883630 0.858242
vt 0.768727 0.866944
vt 0.768727 0.858242
vt 0.716515 0.866944
vt 0.716515 0.858242
vt 0.076422 0.894081
vt 0.076422 0.902783
vt 0.130809 0.894081
vt 0.130809 0.902783
vt 0.183021 0.894081
vt 0.183021 0.902783
vt 0.866033 0.578647
vt 0.854729 0.585173
vt 0.838964 0.557867
vt 0.850268 0.551340
vt 0.845490 0.546562
vt 0.811657 0.542101
vt 0.818183 0.530797
vt 0.811657 0.529048
vt 0.780126 0.542101
vt 0.780126 0.529048
vt 0.773599 0.530797
vt 0.752819 0.557867
vt 0.746292 0.546562
vt 0.741515 0.551340
vt 0.737053 0.585173
vt 0.725749 0.578647
vt 0.724000 0.585173
vt 0.737053 0.616704
vt 0.724000 0.616704
vt 0.725749 0.623231
vt 0.752819 0.644011
vt 0.741515 0.650538
vt 0.746293 0.655315
vt 0.780126 0.659777
vt 0.773599 0.671081
vt 0.780126 0.672830
vt 0.811657 0.659777
vt 0.811657 0.672830
vt 0.818183 0.671081
vt 0.838964 0.644011
vt 0.845490 0.655315
vt 0.867782 0.616705
vt 0.854729 0.616705
vt 0.867782 0.585173
vt 0.850268 0.650538
vt 0.866033 0.623231
vt 0.349872 0.710986
vt 0.406435 0.704459
vt 0.406435 0.710986
vt 0.349872 0.717512
vt 0.209127 0.878291
vt 0.209127 0.856536
vt 0.261339 0.823904
vt 0.235233 0.858712
vt 0.214992 0.704459
vt 0.271555 0.710986
vt 0.271555 0.717512
vt 0.214992 0.710986
vt 0.349872 0.774450
vt 0.271555 0.774450
vt 0.271555 0.654048
vt 0.349872 0.654048
vt 0.574945 0.893050
vt 0.601050 0.927857
vt 0.339992 0.816346
vt 0.592347 0.816346
vt 0.592348 0.822873
vt 0.339992 0.822873
vt 0.392204 0.873470
vt 0.392204 0.895225
vt 0.339992 0.927857
vt 0.366098 0.893049
vt 0.339992 0.781539
vt 0.592347 0.781538
vt 0.495755 0.690795
vt 0.474000 0.690795
vt 0.474000 0.673391
vt 0.495755 0.673391
vt 0.561020 0.690795
vt 0.539265 0.690795
vt 0.539265 0.673391
vt 0.561020 0.673391
vt 0.517510 0.690795
vt 0.517510 0.673391
vt 0.585594 0.946384
vt 0.585594 0.957262
vt 0.761700 0.490325
vt 0.718190 0.507984
vt 0.762674 0.163442
vt 0.718677 0.145784
vt 0.632551 0.946384
vt 0.632551 0.950736
vt 0.156915 0.893519
vt 0.156915 0.867414
vt 0.104704 0.893519
vt 0.104704 0.867414
vt 0.052492 0.878291
vt 0.052492 0.856536
vt 0.026386 0.858712
vt 0.000281 0.823904
vn -0.277500 -0.000000 -0.960700
vn 0.764600 0.000000 0.644500
vn -0.277500 0.000000 0.960700
vn -0.621700 0.000000 0.783300
vn -0.857000 0.000000 0.515300
vn -0.962200 0.000000 0.272300
vn -1.000000 0.000000 0.000000
vn -0.962200 -0.000000 -0.272300
vn -0.857000 0.000000 -0.515300
vn -0.621700 -0.000000 -0.783300
vn 1.000000 0.000000 0.000000
vn 0.048200 0.000000 -0.998800
vn 0.048200 0.000000 0.998800
vn -0.863200 0.000000 -0.504800
vn -0.863200 0.000000 0.504800
vn 0.695400 0.000000 -0.718600
vn 0.695400 0.000000 0.718600
vn -0.564600 0.000000 -0.825400
vn -0.564600 0.000000 0.825400
vn 0.564600 0.000000 0.825400
vn 0.564600 0.000000 -0.825400
vn 0.690000 0.000000 -0.723800
vn 0.690000 0.000000 0.723800
vn -0.349600 0.000000 0.936900
vn 0.588100 0.000000 0.808800
vn -0.349600 0.000000 -0.936900
vn 0.588100 0.000000 -0.808800
vn -0.152200 0.000000 -0.988300
vn -0.152200 0.000000 0.988300
vn 0.132300 0.000000 0.991200
vn 0.132300 0.000000 -0.991200
vn 0.764600 0.000000 -0.644500
vn 0.376100 0.000000 0.926600
vn 0.000000 1.000000 0.000000
vn 0.000000 -1.000000 0.000000
vn 0.258800 0.000000 -0.965900
vn 0.707100 0.000000 -0.707100
vn 0.965900 0.000000 -0.258800
vn 0.965900 0.000000 0.258800
vn 0.707100 0.000000 0.707100
vn 0.258800 0.000000 0.965900
vn -0.258800 0.000000 0.965900
vn -0.707100 0.000000 0.707100
vn -0.965900 0.000000 0.258800
vn -0.965900 0.000000 -0.258800
vn -0.258800 0.000000 -0.965900
vn -0.707100 0.000000 -0.707100
vn 0.000000 0.000000 -1.000000
vn 0.000000 0.000000 1.000000
vn -0.800000 0.000000 -0.600000
vn -0.600000 0.000000 -0.800000
vn 0.848000 0.000000 -0.530000
vn -0.600000 0.000000 0.800000
vn 0.848000 0.000000 0.530000
vn 0.979000 0.000000 0.204000
vn 0.979000 0.000000 -0.204000
vn -0.800000 0.000000 0.600000
vn -0.960000 0.000000 0.280000
vn -0.960000 0.000000 -0.280000
vn 0.000000 -0.993400 -0.114600
vn 0.000000 0.993400 0.114600
vn 0.000000 -0.993400 0.114600
vn 0.000000 0.993400 -0.114600
vn 0.368100 0.000000 -0.929800
vn 0.148300 -0.988900 0.000000
vn 0.384000 0.000000 -0.923300
usemtl None
s off
f 75/1/1 4/2/1 3/3/1 78/4/1
f 71/5/2 6/6/2 5/7/2 72/8/2
f 77/4/3 9/9/3 24/10/3 76/11/3
f 9/9/4 10/12/4 23/13/4 24/10/4
f 10/12/5 11/14/5 22/15/5 23/13/5
f 11/14/6 12/16/6 21/17/6 22/15/6
f 12/18/7 13/19/7 20/16/7 21/20/7
f 13/19/8 14/21/8 19/14/8 20/16/8
f 14/21/9 15/22/9 18/12/9 19/14/9
f 15/22/10 16/23/10 17/9/10 18/12/10
f 2/3/11 1/24/11 25/25/11 26/26/11
f 3/3/11 4/2/11 28/27/11 27/26/11
f 27/26/12 28/27/12 30/28/12 29/29/12
f 26/26/13 25/25/13 31/28/13 32/29/13
f 29/29/14 30/28/14 34/30/14 33/31/14
f 32/29/15 31/28/15 35/30/15 36/31/15
f 33/32/16 34/33/16 38/34/16 37/35/16
f 36/36/17 35/37/17 39/38/17 40/39/17
f 37/35/18 38/34/18 42/40/18 41/41/18
f 40/39/19 39/38/19 43/42/19 44/43/19
f 44/43/20 43/42/20 45/44/20 46/45/20
f 41/41/21 42/40/21 48/46/21 47/47/21
f 47/47/18 48/46/18 50/48/18 49/49/18
f 49/49/22 50/48/22 52/50/22 51/51/22
f 46/45/19 45/44/19 53/52/19 54/53/19
f 54/53/23 53/52/23 55/54/23 56/55/23
f 56/55/24 55/54/24 57/56/24 58/57/24
f 58/57/25 57/56/25 59/58/25 60/59/25
f 51/51/26 52/50/26 62/60/26 61/61/26
f 61/61/27 62/60/27 64/62/27 63/63/27
f 63/63/28 64/62/28 66/64/28 65/65/28
f 60/59/29 59/58/29 67/66/29 68/67/29
f 6/6/30 68/67/30 67/66/30 5/7/30
f 7/68/31 65/65/31 66/64/31 8/69/31
f 8/69/32 69/70/32 74/71/32 7/68/32
f 70/72/33 71/5/33 72/8/33 73/73/33
f 11/74/34 14/75/34 13/76/34 12/77/34
f 10/78/34 15/79/34 14/75/34 11/74/34
f 9/80/34 16/81/34 15/79/34 10/78/34
f 28/82/34 26/83/34 32/84/34 30/85/34
f 2/3/3 77/4/3 76/11/3 1/24/3
f 16/23/1 75/1/1 78/4/1 17/9/1
f 77/86/34 2/87/34 26/83/34 9/80/34
f 75/88/34 16/81/34 28/82/34 4/89/34
f 9/80/34 26/83/34 28/82/34 16/81/34
f 30/85/34 32/84/34 36/90/34 34/91/34
f 34/91/34 36/90/34 40/92/34 38/93/34
f 38/93/34 40/92/34 44/94/34 42/95/34
f 46/96/34 48/97/34 42/95/34 44/94/34
f 48/97/34 46/96/34 54/98/34 50/99/34
f 50/99/34 54/98/34 56/100/34 52/101/34
f 58/102/34 62/103/34 52/101/34 56/100/34
f 60/104/34 64/105/34 62/103/34 58/102/34
f 64/105/34 60/104/34 68/106/34 66/107/34
f 68/106/34 6/108/34 8/109/34 66/107/34
f 71/110/34 69/111/34 8/109/34 6/108/34
f 74/112/35 72/113/35 5/114/35 7/115/35
f 67/116/35 65/117/35 7/115/35 5/114/35
f 29/118/35 31/119/35 25/120/35 27/121/35
f 33/122/35 35/123/35 31/119/35 29/118/35
f 37/124/35 39/125/35 35/123/35 33/122/35
f 41/126/35 43/127/35 39/125/35 37/124/35
f 43/127/35 41/126/35 47/128/35 45/129/35
f 49/130/35 53/131/35 45/129/35 47/128/35
f 51/132/35 55/133/35 53/131/35 49/130/35
f 55/133/35 51/132/35 61/134/35 57/135/35
f 57/135/35 61/134/35 63/136/35 59/137/35
f 65/117/35 67/116/35 59/137/35 63/136/35
f 76/138/35 24/139/35 25/120/35 1/140/35
f 78/141/35 3/142/35 27/121/35 17/143/35
f 27/121/35 25/120/35 24/139/35 17/143/35
f 17/143/35 24/139/35 23/144/35 18/145/35
f 18/145/35 23/144/35 22/146/35 19/147/35
f 19/147/35 22/146/35 21/148/35 20/149/35
f 79/150/36 80/151/36 82/152/36 81/153/36
f 81/153/37 82/154/37 84/155/37 83/156/37
f 83/156/38 84/157/38 86/158/38 85/159/38
f 85/159/39 86/160/39 88/161/39 87/162/39
f 87/162/40 88/163/40 90/164/40 89/165/40
f 89/165/41 90/166/41 92/167/41 91/168/41
f 91/168/42 92/169/42 94/170/42 93/171/42
f 93/171/43 94/172/43 96/173/43 95/174/43
f 95/174/44 96/175/44 98/176/44 97/177/44
f 97/177/45 98/178/45 100/179/45 99/180/45
f 101/181/46 102/182/46 80/183/46 79/150/46
f 99/180/47 100/184/47 102/185/47 101/181/47
f 81/153/35 83/156/35 85/159/35 87/162/35
f 79/150/35 81/153/35 99/180/35 101/181/35
f 93/171/35 95/174/35 97/177/35 99/180/35
f 87/162/35 89/165/35 91/168/35 93/171/35
f 81/153/35 87/162/35 93/171/35 99/180/35
f 103/150/36 104/151/36 106/152/36 105/153/36
f 105/153/37 106/154/37 108/155/37 107/156/37
f 107/156/38 108/157/38 110/158/38 109/159/38
f 109/159/39 110/160/39 112/161/39 111/162/39
f 111/162/40 112/163/40 114/164/40 113/165/40
f 113/165/41 114/166/41 116/167/41 115/168/41
f 115/168/42 116/169/42 118/170/42 117/171/42
f 117/171/43 118/172/43 120/173/43 119/174/43
f 119/174/44 120/175/44 122/176/44 121/177/44
f 121/177/45 122/178/45 124/179/45 123/180/45
f 125/181/46 126/182/46 104/183/46 103/150/46
f 123/180/47 124/184/47 126/185/47 125/181/47
f 105/153/35 107/156/35 109/159/35 111/162/35
f 103/150/35 105/153/35 123/180/35 125/181/35
f 117/171/35 119/174/35 121/177/35 123/180/35
f 111/162/35 113/165/35 115/168/35 117/171/35
f 105/153/35 111/162/35 117/171/35 123/180/35
f 128/186/7 130/187/7 129/188/7 127/189/7
f 130/190/48 134/191/48 133/187/48 129/192/48
f 134/188/11 132/189/11 131/186/11 133/187/11
f 132/187/49 128/192/49 127/190/49 131/191/49
f 127/193/35 129/192/35 133/187/35 131/186/35
f 154/194/50 138/195/50 137/196/50 155/197/50
f 138/195/51 142/198/51 141/199/51 137/196/51
f 146/200/52 140/201/52 139/202/52 147/203/52
f 140/204/53 136/205/53 135/206/53 139/207/53
f 149/208/35 156/209/35 155/210/35 150/211/35
f 148/212/35 157/213/35 156/209/35 149/208/35
f 142/214/54 143/215/54 150/216/54 141/217/54
f 143/215/55 144/218/55 149/219/55 150/216/55
f 144/218/11 145/220/11 148/221/11 149/219/11
f 145/220/56 146/200/56 147/203/56 148/221/56
f 136/205/57 151/222/57 158/223/57 135/206/57
f 151/222/58 152/224/58 157/225/58 158/223/58
f 152/224/7 153/226/7 156/227/7 157/225/7
f 153/226/59 154/194/59 155/197/59 156/227/59
f 159/228/36 160/229/36 162/230/36 161/231/36
f 161/232/37 162/230/37 164/233/37 163/234/37
f 163/235/38 164/233/38 166/236/38 165/237/38
f 165/238/39 166/236/39 168/239/39 167/240/39
f 167/241/40 168/239/40 170/242/40 169/243/40
f 169/244/41 170/242/41 172/245/41 171/246/41
f 171/247/42 172/245/42 174/248/42 173/249/42
f 173/250/43 174/248/43 176/251/43 175/252/43
f 175/253/44 176/251/44 178/254/44 177/255/44
f 177/256/45 178/254/45 180/257/45 179/258/45
f 181/259/46 182/260/46 160/229/46 159/261/46
f 179/262/47 180/257/47 182/260/47 181/263/47
f 164/233/34 162/230/34 168/239/34 166/236/34
f 170/242/34 168/239/34 174/248/34 172/245/34
f 162/230/34 160/229/34 182/260/34 180/257/34
f 176/251/34 174/248/34 180/257/34 178/254/34
f 162/230/34 180/257/34 174/248/34 168/239/34
f 184/264/7 186/265/7 185/266/7 183/267/7
f 154/268/34 143/269/34 142/270/34 138/271/34
f 190/272/11 188/273/11 187/274/11 189/275/11
f 188/273/49 184/264/49 183/267/49 187/274/49
f 183/267/60 185/276/60 189/277/60 187/274/60
f 188/273/61 190/278/61 186/279/61 184/264/61
f 192/272/7 194/273/7 193/274/7 191/275/7
f 194/273/48 198/264/48 197/267/48 193/274/48
f 198/264/11 196/265/11 195/266/11 197/267/11
f 137/280/35 141/281/35 150/211/35 155/210/35
f 191/277/62 193/274/62 197/267/62 195/276/62
f 196/279/63 198/264/63 194/273/63 192/278/63
f 200/282/7 202/283/7 201/284/7 199/285/7
f 158/286/35 147/287/35 139/288/35 135/289/35
f 206/284/11 204/285/11 203/282/11 205/283/11
f 147/287/35 158/286/35 157/213/35 148/212/35
f 199/290/35 201/291/35 205/283/35 203/282/35
f 204/290/34 206/291/34 202/283/34 200/282/34
f 208/292/7 210/293/7 209/294/7 207/295/7
f 210/296/48 214/297/48 213/298/48 209/299/48
f 214/297/11 212/300/11 211/301/11 213/298/11
f 212/300/49 208/292/49 207/295/49 211/301/49
f 74/71/64 69/70/64 215/302/64 216/303/64
f 70/304/34 215/305/34 69/111/34 71/110/34
f 73/306/65 72/113/65 74/112/65 216/307/65
f 216/303/66 215/302/66 70/308/66 73/309/66
f 143/269/34 154/268/34 153/310/34 144/311/34
f 144/311/34 153/310/34 152/312/34 145/313/34
f 145/313/34 152/312/34 151/314/34 146/315/34
f 146/315/34 151/314/34 136/316/34 140/317/34
